<?xml version="1.0" encoding="utf-8"?>
<!-- Generator: Adobe Illustrator 19.0.0, SVG Export Plug-In . SVG Version: 6.00 Build 0)  -->
<svg version="1.1" xmlns="http://www.w3.org/2000/svg" xmlns:xlink="http://www.w3.org/1999/xlink" x="0px" y="0px"
	 viewBox="0 0 1400 980" style="enable-background:new 0 0 1400 980;" xml:space="preserve">
<style type="text/css">
	.st0{fill:#DBDBDB;}
	.st1{fill:#E6E7E8;}
	.st2{opacity:0.2;fill:#727272;}
	.st3{fill:#D1D2D4;}
	.st4{fill:#FFFFFF;}
	.st5{fill:#323132;}
	.st6{fill:#8E5729;}
	.st7{fill:#A36833;}
	.st8{fill:#BA7F52;}
	.st9{opacity:0.1;fill:#8E5729;}
	.st10{fill:#58585B;}
	.st11{fill:#2C2A2B;}
	.st12{fill:#939393;}
	.st13{fill:none;stroke:#323132;stroke-width:20.8693;stroke-linecap:round;stroke-linejoin:round;stroke-miterlimit:10;}
	.st14{fill:none;stroke:#939393;stroke-width:14.6085;stroke-linecap:round;stroke-linejoin:round;stroke-miterlimit:10;}
	.st15{fill:none;stroke:#A8A8A8;stroke-width:14.6085;stroke-linecap:round;stroke-linejoin:round;stroke-miterlimit:10;}
	.st16{fill:none;stroke:#58585B;stroke-width:20.8693;stroke-linecap:round;stroke-linejoin:round;stroke-miterlimit:10;}
	.st17{fill:#4CBA2D;}
	.st18{fill:#3D9B1E;}
	.st19{fill:#68686D;}
	.st20{fill:#828282;}
	.st21{fill:#525256;}
	.st22{fill:#FF4545;}
	.st23{fill:#62CC40;}
	.st24{fill:#FFD710;}
	.st25{fill:#FFBB12;}
	.st26{fill:#FFE812;}
	.st27{fill:#3467B2;}
	.st28{opacity:0.3;fill:#828282;}
	.st29{fill:#4078BC;}
	.st30{opacity:0.2;fill:url(#SVGID_1_);}
</style>
<g id="Layer_1">
	<rect class="st0" width="1400" height="980"/>
	<path class="st1" d="M1400,132.9c-10.9-46.6-27.2-91.1-48.1-132.9H258.1c-41.1,82.1-64.2,174.8-64.2,272.9
		C193.9,610.4,467.5,884,805,884c289.3,0,531.7-201.1,595-471.1V132.9z"/>
</g>
<g id="Layer_2">
	<path class="st2" d="M1277.5,839.4L1219.8,727c-4.8-9.4-14.8-14.5-24.7-13.7l-7.3-14.2c3.8-2.3,5.2-7.1,3.1-11.1l-9.7-18.9
		c-2.1-4.2-7.2-5.8-11.4-3.7l-131.3,67.4c-4.2,2.1-5.8,7.3-3.7,11.4l9.7,18.9c2,4,6.8,5.6,10.8,3.9l7.3,14.2
		c-6.4,7.6-8.1,18.6-3.2,28.1l57.7,112.4c6.4,12.5,21.8,17.4,34.3,11l115.1-59.1C1279,867.2,1283.9,851.9,1277.5,839.4z"/>
	<g>
		<path class="st3" d="M431.6,182.9h-12.1h0h-11.6c-4.4,0-7.9,3.5-7.9,7.9v0.2c0,2,0.7,3.8,2,5.2c0,0,0,0,0,0
			c0.2,0.3,0.5,0.5,0.8,0.8c0,0,0,0,0,0c0.3,0.2,0.6,0.5,0.9,0.6c0,0,0,0,0.1,0c0.3,0.2,0.5,0.3,0.8,0.5c0.1,0,0.1,0.1,0.2,0.1
			c0.3,0.1,0.6,0.3,1,0.4c0,0,0.1,0,0.1,0c0.3,0.1,0.6,0.1,0.9,0.2c0.1,0,0.2,0,0.3,0c0.3,0,0.7,0.1,1,0.1h11.6h0h12.1
			c0.4,0,0.7,0,1-0.1c0.1,0,0.2,0,0.3,0c0.3-0.1,0.6-0.1,0.9-0.2c0,0,0.1,0,0.1,0c0.3-0.1,0.6-0.2,1-0.4c0.1,0,0.1,0,0.2-0.1
			c0.3-0.1,0.6-0.3,0.8-0.5c0,0,0,0,0.1,0c0.3-0.2,0.6-0.4,0.9-0.6c0,0,0,0,0,0c0.3-0.2,0.5-0.5,0.8-0.8c0,0,0,0,0,0
			c1.2-1.4,2-3.2,2-5.2v-0.2C439.6,186.4,436,182.9,431.6,182.9z"/>
		<path class="st3" d="M451.4,123.8C451.4,123.7,451.4,123.7,451.4,123.8c0.2-0.4,0.4-0.7,0.5-1c0,0,0,0,0,0c0.1-0.3,0.3-0.7,0.4-1
			c0,0,0,0,0,0c0.5-1.8,0.4-3.8-0.5-5.6l-0.1-0.2c-1.9-3.9-6.6-5.6-10.6-3.7l-10.9,5.3l0,0l-10.5,5.1c-3.9,1.9-5.6,6.6-3.7,10.6
			l0.1,0.2c0.9,1.8,2.3,3.1,4,3.8c0,0,0,0,0,0c0.3,0.1,0.7,0.3,1,0.4c0,0,0,0,0,0c0.3,0.1,0.7,0.2,1.1,0.2c0,0,0,0,0.1,0
			c0.3,0,0.6,0.1,0.9,0.1c0.1,0,0.1,0,0.2,0c0.3,0,0.7,0,1-0.1c0,0,0.1,0,0.1,0c0.3-0.1,0.6-0.1,0.9-0.2c0.1,0,0.2,0,0.3-0.1
			c0.3-0.1,0.7-0.2,1-0.4l10.5-5.1l0,0l10.9-5.3c0.3-0.2,0.6-0.3,0.9-0.5c0.1,0,0.1-0.1,0.2-0.2c0.2-0.2,0.5-0.4,0.7-0.6
			c0,0,0.1,0,0.1-0.1c0.3-0.2,0.5-0.5,0.7-0.7c0,0,0.1-0.1,0.1-0.1C451,124.3,451.2,124,451.4,123.8z"/>
		<path class="st3" d="M565.9,251.6c0,0,0.1-0.1,0.1-0.1c0.2-0.2,0.4-0.5,0.5-0.8c0,0,0,0,0-0.1c0.2-0.3,0.3-0.6,0.5-1c0,0,0,0,0,0
			c0.1-0.3,0.3-0.7,0.4-1c0,0,0,0,0,0c0.5-1.8,0.4-3.8-0.5-5.6l-0.1-0.2c-1.9-3.9-6.6-5.6-10.6-3.7l-10.9,5.3l0,0l-10.5,5.1
			c-3.9,1.9-5.6,6.6-3.7,10.6l0.1,0.2c0.9,1.8,2.3,3.1,4,3.8c0,0,0,0,0,0c0.3,0.1,0.7,0.3,1,0.4c0,0,0,0,0,0
			c0.3,0.1,0.7,0.2,1.1,0.2c0,0,0,0,0.1,0c0.3,0,0.6,0.1,0.9,0.1c0.1,0,0.1,0,0.2,0c0.3,0,0.7,0,1-0.1c0,0,0.1,0,0.1,0
			c0.3-0.1,0.6-0.1,0.9-0.2c0.1,0,0.2-0.1,0.3-0.1c0.3-0.1,0.7-0.2,1-0.4l10.5-5.1l0,0l10.9-5.3c0.3-0.2,0.6-0.3,0.9-0.5
			c0.1,0,0.1-0.1,0.2-0.2c0.2-0.2,0.5-0.4,0.7-0.6c0,0,0.1,0,0.1-0.1C565.5,252.1,565.7,251.8,565.9,251.6z"/>
		<path class="st3" d="M531.4,153.4c0.1,0,0.2,0,0.3,0.1c0.3,0.1,0.6,0.1,0.9,0.2c0,0,0.1,0,0.1,0c0.3,0,0.7,0.1,1,0.1
			c0.1,0,0.1,0,0.2,0c0.3,0,0.6,0,0.9-0.1c0,0,0,0,0.1,0c0.4-0.1,0.7-0.1,1-0.2c0,0,0,0,0,0c0.3-0.1,0.7-0.2,1-0.4c0,0,0,0,0,0
			c1.7-0.8,3.1-2.1,3.9-4l0.1-0.2c1.8-4,0-8.7-4-10.5l-11.1-5l0,0l-10.6-4.7c-4-1.8-8.7,0-10.5,4l-0.1,0.2c-0.8,1.8-0.9,3.8-0.3,5.6
			c0,0,0,0,0,0c0.1,0.3,0.2,0.7,0.4,1c0,0,0,0,0,0c0.2,0.3,0.3,0.6,0.5,0.9c0,0,0,0,0,0.1c0.2,0.3,0.4,0.5,0.6,0.8
			c0,0,0.1,0.1,0.1,0.1c0.2,0.3,0.5,0.5,0.7,0.7c0,0,0.1,0,0.1,0.1c0.2,0.2,0.5,0.4,0.7,0.5c0.1,0,0.1,0.1,0.2,0.1
			c0.3,0.2,0.6,0.4,0.9,0.5l10.6,4.8l0,0l11.1,4.9C530.7,153.2,531,153.3,531.4,153.4z"/>
		<path class="st3" d="M347,248.8l-12.1-1.2l0,0l-11.6-1.2c-4.4-0.4-8.2,2.7-8.7,7.1l0,0.2c-0.2,2,0.4,3.9,1.4,5.4c0,0,0,0,0,0
			c0.2,0.3,0.4,0.6,0.7,0.8c0,0,0,0,0,0c0.2,0.3,0.5,0.5,0.8,0.7c0,0,0,0,0.1,0c0.2,0.2,0.5,0.4,0.8,0.5c0,0,0.1,0.1,0.1,0.1
			c0.3,0.2,0.6,0.3,0.9,0.5c0,0,0.1,0,0.1,0c0.3,0.1,0.6,0.2,0.9,0.3c0.1,0,0.2,0,0.3,0.1c0.3,0.1,0.7,0.1,1,0.2l11.6,1.2l0,0
			l12,1.2c0.4,0,0.7,0,1,0c0.1,0,0.2,0,0.3,0c0.3,0,0.6-0.1,0.9-0.1c0,0,0.1,0,0.1,0c0.3-0.1,0.7-0.2,1-0.3c0.1,0,0.1,0,0.2-0.1
			c0.3-0.1,0.6-0.2,0.9-0.4c0,0,0,0,0.1,0c0.3-0.2,0.6-0.3,0.9-0.6c0,0,0,0,0,0c1.8-1.3,3.1-3.3,3.3-5.7l0-0.2
			C354.5,253.1,351.4,249.3,347,248.8z"/>
	</g>
	<path class="st2" d="M290,150.3l-52.3-58.4c-3.1-3.4-8.3-3.7-11.7-0.7L210.6,105c-3.3,2.9-3.7,7.8-1,11.2l-11.6,10.4
		c-8.8-4.2-19.6-3-27.4,3.9l-28.9,25.8l-51.2,45.8l0,0L78.4,213c-10.2,9.2-11.1,24.9-2,35.1l40.4,45.1c9.2,10.2,24.9,11.1,35.1,2
		l92.1-82.4c7.7-6.9,10.1-17.6,6.9-26.8l5.7-5.1l0,0l1.2-1.1l4.7-4.2c3.1,3,8,3.1,11.3,0.2l15.5-13.8
		C292.8,159,293.1,153.7,290,150.3z"/>
	<path class="st2" d="M906.7,204.6l-27.9,5.6l-1.6-7.9l-1.2-6.1c-1.6-7.8-9.1-12.8-16.9-11.2l-69.9,14c-0.1-1-0.2-2-0.4-3
		c-3.2-15.8-18.5-26-34.3-22.8c-15.8,3.2-26,18.5-22.8,34.3c0.2,1,0.5,2,0.8,3l-69.9,14c-7.8,1.6-12.8,9.1-11.2,16.9l1.2,6.1
		l1.6,7.9l-27.9,5.6c-14,2.8-23.1,16.4-20.3,30.5l2.6,13l76.6,381.4l2.6,13c2.8,14,16.4,23.1,30.5,20.3l280.6-56.4
		c14-2.8,23.1-16.4,20.3-30.5l-2.6-13l-76.6-381.4l-2.6-13C934.4,210.9,920.7,201.8,906.7,204.6z M760.9,205.3c4.6-0.9,8.2-4,10-7.9
		c1.4,1.3,2.6,2.9,3.4,4.7c0-0.5,0-1,0-1.5c0,0.5,0.1,1,0,1.6c0,1.1-0.2,2.3-0.5,3.3c0,0.1,0,0.2-0.1,0.2c-0.1,0.3-0.2,0.6-0.3,0.8
		c0,0.1-0.1,0.2-0.1,0.4c-0.1,0.3-0.2,0.5-0.3,0.8c-0.1,0.1-0.1,0.3-0.2,0.4c-0.1,0.2-0.2,0.5-0.4,0.7c-0.1,0.1-0.2,0.3-0.2,0.4
		c-0.1,0.2-0.3,0.4-0.4,0.6c-0.1,0.1-0.2,0.3-0.3,0.4c-0.1,0.2-0.3,0.4-0.4,0.6c-0.2,0.2-0.4,0.5-0.6,0.7c-0.2,0.2-0.4,0.4-0.6,0.6
		c-0.2,0.2-0.4,0.3-0.5,0.5c-0.1,0.1-0.3,0.2-0.4,0.4c-0.2,0.2-0.4,0.3-0.6,0.4c-0.2,0.1-0.3,0.2-0.5,0.3c-0.2,0.1-0.4,0.3-0.6,0.4
		c-0.2,0.1-0.3,0.2-0.5,0.3c-0.2,0.1-0.5,0.2-0.7,0.3c-0.2,0.1-0.3,0.1-0.5,0.2c-0.3,0.1-0.5,0.2-0.8,0.3c-0.1,0-0.3,0.1-0.4,0.1
		c-0.4,0.1-0.9,0.2-1.3,0.3c-0.4,0.1-0.9,0.2-1.3,0.2c-0.1,0-0.3,0-0.4,0c-0.3,0-0.6,0-0.9,0c-0.2,0-0.3,0-0.5,0c-0.3,0-0.5,0-0.8,0
		c-0.2,0-0.4,0-0.5-0.1c-0.3,0-0.5-0.1-0.7-0.1c-0.2,0-0.4-0.1-0.5-0.1c-0.2-0.1-0.5-0.1-0.7-0.2c-0.2-0.1-0.4-0.1-0.5-0.2
		c-0.2-0.1-0.5-0.2-0.7-0.3c-0.2-0.1-0.5-0.2-0.7-0.3c-0.3-0.1-0.6-0.3-0.9-0.4c-0.2-0.1-0.4-0.2-0.6-0.4c-0.1-0.1-0.3-0.2-0.4-0.3
		c-0.2-0.1-0.4-0.3-0.6-0.4c-0.1-0.1-0.3-0.2-0.4-0.3c-0.2-0.2-0.4-0.3-0.6-0.5c-0.1-0.1-0.2-0.2-0.3-0.3c-0.2-0.2-0.4-0.4-0.6-0.6
		c-0.1-0.1-0.2-0.2-0.3-0.3c-0.2-0.2-0.4-0.4-0.6-0.7c-0.1-0.1-0.1-0.1-0.1-0.2c-0.7-0.9-1.3-1.8-1.7-2.9c0,0,0,0,0,0
		c0-2,0.5-3.9,1.3-5.6C751.8,204.8,756.3,206.2,760.9,205.3z M747.2,207.3c-0.2-0.4-0.3-0.8-0.5-1.2
		C746.9,206.5,747,206.9,747.2,207.3z"/>
	<g>
		<g>
			
				<rect x="187.4" y="397.8" transform="matrix(0.9782 0.2076 -0.2076 0.9782 131.3114 -56.9482)" class="st2" width="299" height="398.3"/>
		</g>
		<g>
			<g>
				
					<rect x="184" y="391.2" transform="matrix(0.9782 0.2076 -0.2076 0.9782 129.865 -56.3735)" class="st4" width="299" height="398.3"/>
			</g>
			<g>
				<path class="st5" d="M288.6,462.6c-0.2-0.6-0.9-1.6-1.2-2.4l-6.2-14.5l10.5-9.9c0.6-0.6,1.5-1.2,2-1.6c0.4-0.4,0.6-0.8,0.7-1.2
					c0.2-0.9-0.4-1.9-1.4-2.1c-0.7-0.1-1.4,0.2-1.9,0.6c-0.4,0.4-1.1,1.4-1.8,2l-9.5,9.1l-5-12.1c-0.1-0.2-0.2-0.5-0.3-0.8
					c4.4-0.3,8-2.7,9-7.3c1.2-5.9-2.9-10.4-9-11.7l-8.3-1.8c-1.3-0.3-2.2,0.4-2.5,1.5c-0.1,0.6-0.2,1.8-0.4,2.7l-5.2,24.5
					c-0.2,0.9-0.6,2.1-0.8,2.7c-0.2,1.2,0.4,2.1,1.5,2.4c1.1,0.2,2.1-0.4,2.3-1.6c0.1-0.6,0.2-1.9,0.4-2.8l2.2-10.5l5.7,1.2l1.1,0.2
					c0.2,0.6,0.8,1.5,1.1,2.3l5.5,13.1l-11.5,10.9c-0.6,0.6-1.5,1.2-2,1.6c-0.4,0.4-0.6,0.8-0.7,1.2c-0.2,0.9,0.4,1.9,1.4,2.1
					c0.7,0.2,1.4-0.2,1.9-0.6c0.4-0.4,1.1-1.4,1.8-2l10.5-10.1l5.7,13.6c0.3,0.8,0.6,2.1,0.9,2.6c0.3,0.6,0.7,1.1,1.4,1.3
					c1,0.2,1.9-0.5,2.1-1.4C288.8,463.5,288.7,463.1,288.6,462.6z M264.4,424.9l2.7-12.5l6.8,1.4c4.6,1,7.1,4,6.3,7.9
					c-0.8,3.9-4.4,5.6-9,4.6L264.4,424.9z"/>
			</g>
			<g>
				<path class="st5" d="M413.5,721.7L207,677.8c-0.3-0.1-0.4-0.3-0.4-0.6l43.8-206.5c0.1-0.3,0.3-0.4,0.6-0.4l206.5,43.8
					c0.3,0.1,0.4,0.3,0.4,0.6l-43.8,206.5C414,721.5,413.8,721.7,413.5,721.7z M207.7,677l205.6,43.6l43.6-205.6l-205.6-43.6
					L207.7,677z"/>
			</g>
			<g>
				<path class="st5" d="M203.6,699.9l1.2-5.8c0-0.2,0.1-0.5,0.1-0.7c0.1-0.3,0.3-0.4,0.6-0.4l2,0.4c1.6,0.3,2.5,1.4,2.2,2.8
					c-0.3,1.4-1.6,2.1-3.1,1.8l-1.7-0.4l-0.5,2.3c0,0.2-0.1,0.5-0.1,0.7c-0.1,0.3-0.3,0.4-0.5,0.4c-0.3-0.1-0.4-0.3-0.4-0.6
					C203.5,700.4,203.6,700.1,203.6,699.9z M206.8,697.4c1.1,0.2,1.9-0.3,2.1-1.2c0.2-0.9-0.3-1.7-1.5-2l-1.6-0.3l-0.7,3.2
					L206.8,697.4z"/>
				<path class="st5" d="M211.8,697.8c0.5-0.4,1.1-0.5,1.8-0.4c1.1,0.2,1.7,1.3,1.4,2.4l-0.5,2.5c0,0.2,0,0.4-0.1,0.6
					c-0.1,0.2-0.3,0.4-0.5,0.3c-0.2-0.1-0.4-0.3-0.3-0.5c0-0.2,0.1-0.4,0.2-0.6l0.5-2.4c0.2-0.9-0.2-1.5-1-1.7
					c-0.6-0.1-1.2,0.1-1.6,0.5l-0.6,3c0,0.2,0,0.4-0.1,0.6c-0.1,0.2-0.3,0.4-0.5,0.3c-0.2-0.1-0.4-0.3-0.3-0.5
					c0-0.2,0.1-0.4,0.2-0.6l1.3-6.1c0-0.2,0-0.4,0.1-0.6c0.1-0.2,0.3-0.4,0.5-0.3c0.2,0.1,0.4,0.3,0.3,0.5c0,0.2-0.1,0.4-0.2,0.6
					L211.8,697.8z"/>
				<path class="st5" d="M215.3,705.7c0-0.2,0.3-0.4,0.5-0.3c0.2,0.1,0.3,0.2,0.5,0.2c0.2,0,0.4-0.1,0.6-0.3l0.7-1.2l0,0
					c-0.2,0-0.4-0.2-0.4-0.4c0-0.2,0-0.4,0-0.7l-0.5-3.6c0-0.2-0.1-0.3-0.1-0.5c0-0.1,0-0.2,0-0.3c0-0.2,0.3-0.4,0.5-0.3
					c0.2,0,0.3,0.2,0.3,0.3c0,0.2,0,0.4,0,0.6l0.4,3.5c0,0.3,0,0.6,0.1,0.7l2.3-3.6c0.1-0.2,0.2-0.4,0.3-0.6
					c0.1-0.1,0.3-0.2,0.4-0.2c0.2,0.1,0.4,0.3,0.3,0.5c0,0.1-0.1,0.2-0.1,0.2c-0.1,0.1-0.2,0.2-0.3,0.4l-3.5,5.4
					c-0.4,0.6-0.9,0.8-1.6,0.6C215.5,706.2,215.2,706,215.3,705.7z"/>
				<path class="st5" d="M224.5,704c0.1-0.5-0.2-0.8-1.1-1.2l-0.2-0.1c-1-0.6-1.2-1.3-1.1-1.9c0.2-0.7,1-1.3,2-1.1
					c0.8,0.2,1.3,0.6,1.5,1c0.1,0.1,0.1,0.3,0.1,0.5c0,0.2-0.3,0.4-0.5,0.3c-0.1,0-0.3-0.1-0.3-0.4c-0.1-0.4-0.4-0.7-0.9-0.8
					c-0.6-0.1-1,0.1-1.1,0.5c-0.1,0.4,0,0.7,0.8,1.2l0.1,0.1c1.1,0.6,1.6,1.2,1.4,2.1c-0.2,0.8-1,1.4-2.3,1.1
					c-0.8-0.2-1.4-0.7-1.6-1.4c0-0.1-0.1-0.3,0-0.5c0-0.2,0.2-0.4,0.5-0.3c0.2,0.1,0.4,0.3,0.3,0.5c-0.1,0.5,0.4,0.9,1,1.1
					C223.8,704.8,224.4,704.5,224.5,704z"/>
				<path class="st5" d="M228.6,698.3c0.3,0.1,0.5,0.4,0.4,0.7c-0.1,0.3-0.4,0.5-0.7,0.4c-0.3-0.1-0.5-0.4-0.4-0.7
					C228,698.5,228.3,698.3,228.6,698.3z M227.5,701.6c0-0.2,0-0.4,0.1-0.6c0.1-0.2,0.3-0.4,0.5-0.3c0.2,0.1,0.4,0.3,0.3,0.5
					c0,0.2-0.1,0.4-0.2,0.6l-0.7,3.3c0,0.2,0,0.4-0.1,0.6c-0.1,0.2-0.3,0.4-0.5,0.3c-0.2-0.1-0.4-0.3-0.3-0.5c0-0.2,0.1-0.4,0.2-0.6
					L227.5,701.6z"/>
				<path class="st5" d="M229.8,703.8c0.3-1.5,1.5-2.6,3.1-2.3c0.9,0.2,1.4,0.7,1.7,1.2c0.1,0.3,0.2,0.4,0.1,0.5
					c0,0.2-0.3,0.4-0.5,0.3c-0.1,0-0.3-0.2-0.3-0.4c-0.1-0.5-0.5-0.9-1.1-1c-1.1-0.2-1.9,0.7-2.2,1.8c-0.2,1.1,0.2,2.3,1.3,2.5
					c0.7,0.2,1.2-0.1,1.5-0.5c0.1-0.2,0.3-0.2,0.5-0.2c0.3,0.1,0.4,0.3,0.3,0.5c0,0.2-0.1,0.3-0.4,0.5c-0.5,0.4-1.2,0.6-2.1,0.4
					C230.1,706.8,229.5,705.3,229.8,703.8z"/>
				<path class="st5" d="M237.6,700.3c0.3,0.1,0.5,0.4,0.4,0.7c-0.1,0.3-0.4,0.5-0.7,0.4c-0.3-0.1-0.5-0.4-0.4-0.7
					C237,700.4,237.3,700.2,237.6,700.3z M236.5,703.5c0-0.2,0-0.4,0.1-0.6c0.1-0.2,0.3-0.4,0.5-0.3c0.2,0.1,0.4,0.3,0.3,0.5
					c0,0.2-0.1,0.4-0.2,0.6l-0.7,3.3c0,0.2,0,0.4-0.1,0.6c-0.1,0.2-0.3,0.4-0.5,0.3c-0.2-0.1-0.4-0.3-0.3-0.5c0-0.2,0.1-0.4,0.2-0.6
					L236.5,703.5z"/>
				<path class="st5" d="M241.5,708.7c-0.4,0.3-1,0.4-1.6,0.2c-1.1-0.2-1.8-1.1-1.6-2.1c0.2-0.9,1-1.5,2.3-1.3
					c0.8,0.1,1.2,0.1,1.4,0l0.1-0.3c0.1-0.6-0.2-1.1-0.9-1.2c-0.5-0.1-0.9,0.1-1.1,0.5c-0.1,0.2-0.3,0.3-0.5,0.2
					c-0.3-0.1-0.4-0.3-0.3-0.5c0-0.1,0.1-0.3,0.2-0.4c0.3-0.4,1-0.6,1.8-0.4c1.1,0.2,1.7,1.1,1.5,2.1l-0.6,2.9c0,0.1,0,0.1,0,0.1
					c0.1,0,0.1,0,0.2,0c0.2,0,0.3,0.3,0.3,0.5c-0.1,0.3-0.3,0.4-0.7,0.3C241.8,709.2,241.6,709,241.5,708.7z M241.5,708l0.4-1.9
					c-0.2,0.1-0.6,0.2-1.4,0c-0.8-0.1-1.3,0.2-1.4,0.8c-0.1,0.6,0.3,1.1,1,1.2C240.7,708.3,241.2,708.3,241.5,708z"/>
				<path class="st5" d="M248.4,707c0.2-0.9-0.2-1.5-1-1.7c-0.6-0.1-1.2,0.1-1.6,0.5l-0.6,3c0,0.2,0,0.4-0.1,0.6
					c-0.1,0.2-0.3,0.4-0.5,0.3c-0.2-0.1-0.4-0.3-0.3-0.5c0-0.2,0.1-0.4,0.2-0.6l0.7-3.3c0-0.2,0-0.5,0-0.6c0.1-0.3,0.3-0.4,0.5-0.4
					c0.2,0.1,0.4,0.3,0.3,0.5l0,0.1c0.5-0.4,1.1-0.5,1.8-0.4c1.1,0.2,1.7,1.3,1.4,2.4l-0.5,2.5c0,0.2,0,0.4-0.1,0.6
					c-0.1,0.2-0.3,0.4-0.5,0.3c-0.2-0.1-0.4-0.3-0.3-0.5c0-0.2,0.1-0.4,0.2-0.6L248.4,707z"/>
			</g>
			<g>
				<path class="st5" d="M200.4,714.9c0.1-0.3,0.3-0.4,0.6-0.4l1.9,0.4c2.2,0.5,3.1,2.1,2.6,4.6c-0.5,2.5-2.1,3.9-4.4,3.4l-1.9-0.4
					c-0.3-0.1-0.5-0.3-0.4-0.6c0-0.1,0.1-0.4,0.2-0.6l1.2-5.8C200.3,715.4,200.4,715.1,200.4,714.9z M199.8,721.9l1.5,0.3
					c1.8,0.4,3-0.8,3.4-2.8c0.4-2-0.2-3.4-1.8-3.7l-1.6-0.3L199.8,721.9z"/>
				<path class="st5" d="M209.5,724.3c-0.4,0.3-1,0.4-1.6,0.2c-1.1-0.2-1.8-1-1.6-2.1c0.2-0.9,1-1.5,2.3-1.3c0.8,0.1,1.2,0.1,1.4,0
					l0.1-0.3c0.1-0.6-0.2-1.1-0.9-1.2c-0.5-0.1-0.9,0.1-1.1,0.5c-0.1,0.2-0.3,0.3-0.5,0.2c-0.3-0.1-0.4-0.3-0.3-0.5
					c0-0.1,0.1-0.3,0.2-0.4c0.3-0.4,1-0.6,1.8-0.4c1.1,0.2,1.7,1.1,1.5,2.1l-0.6,2.9c0,0.1,0,0.1,0,0.1c0.1,0,0.1,0,0.2,0
					c0.2,0,0.3,0.3,0.3,0.5c-0.1,0.3-0.3,0.4-0.7,0.3C209.8,724.9,209.5,724.7,209.5,724.3z M209.5,723.7l0.4-1.9
					c-0.2,0.1-0.6,0.1-1.4,0c-0.8-0.1-1.3,0.2-1.4,0.8c-0.1,0.6,0.3,1.1,1,1.2C208.7,724,209.2,723.9,209.5,723.7z"/>
				<path class="st5" d="M212.9,719.8c0.2,0,0.3,0.1,0.5,0.2l0.1,0l0.1-0.5c0-0.2,0-0.5,0.1-0.6c0.1-0.3,0.3-0.4,0.5-0.4
					c0.2,0.1,0.4,0.3,0.3,0.5c0,0.1-0.1,0.4-0.2,0.6l-0.1,0.5l0.7,0.1c0.1,0,0.4,0,0.5,0.1c0.2,0,0.4,0.3,0.3,0.5
					c0,0.2-0.2,0.3-0.5,0.3c-0.1,0-0.3-0.1-0.5-0.1l-0.7-0.1l-0.7,3.5c-0.1,0.4,0.1,0.6,0.3,0.6c0.2,0,0.3,0,0.5-0.1
					c0.1-0.1,0.3-0.1,0.4-0.1c0.2,0,0.4,0.2,0.3,0.5c0,0.2-0.2,0.3-0.3,0.4c-0.3,0.1-0.6,0.1-0.9,0.1c-0.8-0.2-1.2-0.7-1-1.5
					l0.7-3.5l-0.1,0c-0.2,0-0.4,0-0.5-0.1c-0.2,0-0.4-0.2-0.3-0.5C212.4,719.9,212.6,719.8,212.9,719.8z"/>
				<path class="st5" d="M221.1,724c-0.1,0.4-0.3,0.6-0.7,0.5l-3.4-0.7c-0.2,1.2,0.4,2.1,1.3,2.3c0.6,0.1,1.2,0,1.5-0.5
					c0.1-0.2,0.3-0.2,0.5-0.2c0.3,0.1,0.4,0.3,0.3,0.5c0,0.2-0.1,0.2-0.2,0.4c-0.5,0.5-1.3,0.7-2.2,0.5c-1.5-0.3-2.3-1.7-1.9-3.4
					c0.3-1.6,1.7-2.6,3.1-2.3C220.7,721.4,221.4,722.7,221.1,724z M217.1,723.1l3.3,0.7c0.2-0.8-0.1-1.8-1.2-2.1
					C218.2,721.5,217.4,722.1,217.1,723.1z"/>
			</g>
			<g>
				<path class="st5" d="M408.5,745l-147.6-31.3c-0.3-0.1-0.4-0.3-0.4-0.6c0.1-0.3,0.3-0.4,0.6-0.4l147.6,31.3
					c0.3,0.1,0.4,0.3,0.4,0.6C409.1,744.9,408.8,745.1,408.5,745z"/>
			</g>
			<g>
				<g>
					<path class="st5" d="M336.5,432.9l1.2-5.8c0-0.2,0.1-0.5,0.1-0.6c0.1-0.3,0.3-0.4,0.6-0.4l2,0.4c1.6,0.3,2.5,1.4,2.2,2.8
						c-0.3,1.4-1.6,2.1-3.1,1.8l-1.7-0.4l-0.5,2.3c0,0.2-0.1,0.5-0.1,0.7c-0.1,0.3-0.3,0.4-0.5,0.4c-0.3-0.1-0.4-0.3-0.3-0.6
						C336.3,433.4,336.4,433.1,336.5,432.9z M339.7,430.4c1.1,0.2,1.9-0.3,2.1-1.2c0.2-0.9-0.3-1.7-1.5-2l-1.6-0.3l-0.7,3.2
						L339.7,430.4z"/>
					<path class="st5" d="M345.5,435.5c-0.4,0.3-1,0.4-1.6,0.2c-1.1-0.2-1.8-1-1.6-2.1c0.2-0.9,1-1.5,2.3-1.3c0.8,0.1,1.2,0.1,1.4,0
						l0.1-0.3c0.1-0.6-0.2-1.1-0.9-1.2c-0.5-0.1-0.9,0.1-1.1,0.5c-0.1,0.2-0.3,0.3-0.5,0.2c-0.3-0.1-0.4-0.3-0.3-0.5
						c0-0.1,0.1-0.3,0.2-0.4c0.3-0.3,1-0.6,1.8-0.4c1.1,0.2,1.7,1.1,1.5,2.1l-0.6,2.9c0,0.1,0,0.1,0,0.1c0.1,0,0.1,0,0.2,0
						c0.2,0,0.3,0.3,0.3,0.5c-0.1,0.3-0.3,0.4-0.7,0.3C345.8,436.1,345.6,435.9,345.5,435.5z M345.5,434.9l0.4-1.9
						c-0.2,0.1-0.6,0.1-1.4,0c-0.8-0.1-1.3,0.2-1.4,0.8c-0.1,0.6,0.3,1.1,1,1.2C344.7,435.2,345.2,435.1,345.5,434.9z"/>
					<path class="st5" d="M348.9,431c0.2,0,0.3,0.1,0.5,0.2l0.1,0l0.1-0.5c0-0.2,0-0.5,0.1-0.6c0.1-0.3,0.3-0.4,0.5-0.4
						c0.2,0.1,0.4,0.3,0.3,0.5c0,0.1-0.1,0.4-0.2,0.6l-0.1,0.5l0.7,0.1c0.1,0,0.4,0,0.5,0.1c0.2,0,0.4,0.3,0.3,0.5
						c0,0.2-0.2,0.3-0.5,0.3c-0.1,0-0.3-0.1-0.5-0.1l-0.7-0.1l-0.7,3.5c-0.1,0.4,0.1,0.6,0.3,0.6c0.2,0,0.3,0,0.5-0.1
						c0.1-0.1,0.3-0.1,0.4-0.1c0.2,0,0.4,0.2,0.3,0.5c0,0.2-0.2,0.3-0.3,0.4c-0.3,0.1-0.6,0.1-0.9,0.1c-0.8-0.2-1.2-0.7-1-1.5
						l0.7-3.5l-0.1,0c-0.2,0-0.4,0-0.5-0.1c-0.2,0-0.4-0.3-0.3-0.5C348.5,431.1,348.7,430.9,348.9,431z"/>
					<path class="st5" d="M354.1,429.8c0.3,0.1,0.5,0.4,0.4,0.7c-0.1,0.3-0.4,0.5-0.7,0.4c-0.3-0.1-0.5-0.4-0.4-0.7
						C353.5,429.9,353.8,429.7,354.1,429.8z M353,433c0-0.2,0-0.4,0.1-0.6c0.1-0.2,0.3-0.4,0.5-0.3c0.2,0.1,0.4,0.3,0.3,0.5
						c0,0.2-0.1,0.4-0.2,0.6l-0.7,3.3c0,0.2,0,0.4-0.1,0.6c-0.1,0.2-0.3,0.4-0.5,0.3c-0.2-0.1-0.4-0.3-0.3-0.5
						c0-0.2,0.1-0.4,0.2-0.6L353,433z"/>
					<path class="st5" d="M360.2,435.8c-0.1,0.4-0.3,0.6-0.7,0.5l-3.4-0.7c-0.2,1.2,0.4,2.1,1.3,2.3c0.6,0.1,1.2,0,1.5-0.5
						c0.1-0.2,0.3-0.2,0.5-0.2c0.3,0.1,0.4,0.3,0.3,0.5c0,0.2-0.1,0.2-0.2,0.4c-0.5,0.5-1.3,0.7-2.2,0.5c-1.5-0.3-2.3-1.7-1.9-3.4
						c0.3-1.6,1.7-2.6,3.1-2.3C359.8,433.2,360.5,434.6,360.2,435.8z M356.2,434.9l3.3,0.7c0.2-0.8-0.1-1.8-1.2-2.1
						C357.3,433.4,356.5,433.9,356.2,434.9z"/>
					<path class="st5" d="M365.5,436.6c0.2-0.9-0.2-1.5-1-1.7c-0.6-0.1-1.2,0.1-1.6,0.5l-0.6,3c0,0.2,0,0.4-0.1,0.6
						c-0.1,0.2-0.3,0.4-0.5,0.3c-0.2-0.1-0.4-0.3-0.3-0.5c0-0.2,0.1-0.4,0.2-0.6l0.7-3.3c0-0.2,0-0.5,0-0.6c0.1-0.3,0.3-0.4,0.5-0.4
						c0.2,0.1,0.4,0.3,0.3,0.5l0,0.1c0.5-0.4,1.1-0.5,1.8-0.4c1.1,0.2,1.7,1.3,1.4,2.4l-0.5,2.5c0,0.2,0,0.4-0.1,0.6
						c-0.1,0.2-0.3,0.4-0.5,0.3c-0.2-0.1-0.4-0.3-0.3-0.5c0-0.2,0.1-0.4,0.2-0.6L365.5,436.6z"/>
					<path class="st5" d="M368.4,435.1c0.2,0,0.3,0.1,0.5,0.2l0.1,0l0.1-0.5c0-0.2,0-0.5,0.1-0.6c0.1-0.3,0.3-0.4,0.5-0.4
						c0.2,0.1,0.4,0.3,0.3,0.5c0,0.1-0.1,0.4-0.2,0.6l-0.1,0.5l0.7,0.1c0.1,0,0.4,0,0.5,0.1c0.2,0,0.4,0.3,0.3,0.5
						c0,0.2-0.2,0.3-0.5,0.3c-0.1,0-0.3-0.1-0.5-0.1l-0.7-0.1l-0.7,3.5c-0.1,0.4,0.1,0.6,0.3,0.6c0.2,0,0.3,0,0.5-0.1
						c0.1-0.1,0.3-0.1,0.4-0.1c0.2,0,0.4,0.2,0.3,0.5c0,0.2-0.2,0.3-0.3,0.4c-0.3,0.1-0.6,0.1-0.9,0.1c-0.8-0.2-1.2-0.7-1-1.5
						l0.7-3.5l-0.1,0c-0.2,0-0.4,0-0.5-0.1c-0.2,0-0.4-0.3-0.3-0.5C368,435.2,368.2,435.1,368.4,435.1z"/>
					<path class="st5" d="M374.2,441.6c0-0.1,0.1-0.4,0.2-0.6l1.2-5.8c0-0.2,0.1-0.5,0.1-0.7c0.1-0.3,0.3-0.4,0.5-0.4
						c0.2,0.1,0.3,0.1,0.5,0.4l2.2,5.8c0.2,0.5,0.5,1.3,0.6,1.5c0-0.3,0.1-0.7,0.2-1.2l0.9-4.5c0-0.2,0.1-0.5,0.1-0.7
						c0.1-0.3,0.3-0.4,0.5-0.4c0.3,0.1,0.4,0.3,0.3,0.6c0,0.1-0.1,0.4-0.2,0.6l-1.3,5.9c0,0.2-0.1,0.5-0.1,0.7
						c-0.1,0.3-0.3,0.4-0.5,0.4c-0.4-0.1-0.4-0.4-0.6-0.9l-2.7-6.9c0,0.3-0.1,0.7-0.2,1.1l-0.9,4.6c0,0.2-0.1,0.5-0.1,0.7
						c-0.1,0.3-0.3,0.4-0.5,0.4C374.3,442.1,374.1,441.9,374.2,441.6z"/>
					<path class="st5" d="M385.2,444c-0.4,0.3-1,0.4-1.6,0.2c-1.1-0.2-1.8-1-1.6-2.1c0.2-0.9,1-1.5,2.3-1.3c0.8,0.1,1.2,0.1,1.4,0
						l0.1-0.3c0.1-0.6-0.2-1.1-0.9-1.2c-0.5-0.1-0.9,0.1-1.1,0.5c-0.1,0.2-0.3,0.3-0.5,0.2c-0.3-0.1-0.4-0.3-0.3-0.5
						c0-0.1,0.1-0.3,0.2-0.4c0.3-0.3,1-0.6,1.8-0.4c1.1,0.2,1.7,1.1,1.5,2.1l-0.6,2.9c0,0.1,0,0.1,0,0.1c0.1,0,0.1,0,0.2,0
						c0.2,0,0.3,0.3,0.3,0.5c-0.1,0.3-0.3,0.4-0.7,0.3C385.5,444.5,385.3,444.3,385.2,444z M385.2,443.3l0.4-1.9
						c-0.2,0.1-0.6,0.1-1.4,0c-0.8-0.1-1.3,0.2-1.4,0.8c-0.1,0.6,0.3,1.1,1,1.2C384.4,443.6,384.9,443.5,385.2,443.3z"/>
					<path class="st5" d="M395.4,443c0.2-0.9-0.1-1.5-0.9-1.7c-0.6-0.1-1.2,0.1-1.6,0.6c0,0.1,0,0.3-0.1,0.4l-0.5,2.5
						c0,0.2,0,0.4-0.1,0.6c-0.1,0.2-0.3,0.4-0.5,0.3c-0.2-0.1-0.4-0.3-0.3-0.5c0-0.2,0.1-0.4,0.2-0.6l0.5-2.4c0.1-0.2,0.1-0.5,0-0.7
						c-0.1-0.5-0.4-0.9-0.9-1c-0.6-0.1-1.1,0.1-1.6,0.6l-0.6,3c0,0.2,0,0.4-0.1,0.6c-0.1,0.2-0.3,0.4-0.5,0.3
						c-0.2-0.1-0.4-0.3-0.3-0.5c0-0.2,0.1-0.4,0.2-0.6l0.7-3.3c0-0.2,0-0.5,0-0.6c0.1-0.3,0.3-0.4,0.5-0.4c0.2,0.1,0.4,0.3,0.3,0.5
						l0,0.2c0.5-0.4,1-0.6,1.7-0.4c0.8,0.2,1.2,0.7,1.4,1.3c0.5-0.5,1.2-0.8,2-0.6c1.1,0.2,1.7,1.2,1.5,2.5l-0.5,2.4
						c0,0.2,0,0.4-0.1,0.6c-0.1,0.2-0.3,0.4-0.5,0.3c-0.2-0.1-0.4-0.3-0.3-0.5c0-0.2,0.1-0.4,0.2-0.6L395.4,443z"/>
					<path class="st5" d="M402.6,444.8c-0.1,0.4-0.3,0.6-0.7,0.5l-3.4-0.7c-0.2,1.2,0.4,2.1,1.3,2.3c0.6,0.1,1.2,0,1.5-0.5
						c0.1-0.2,0.3-0.2,0.5-0.2c0.3,0.1,0.4,0.3,0.3,0.5c0,0.2-0.1,0.2-0.2,0.4c-0.5,0.5-1.3,0.7-2.2,0.5c-1.5-0.3-2.3-1.7-1.9-3.4
						c0.3-1.6,1.7-2.6,3.1-2.3C402.3,442.2,402.9,443.6,402.6,444.8z M398.6,444l3.3,0.7c0.2-0.8-0.1-1.8-1.2-2.1
						C399.7,442.4,398.9,443,398.6,444z"/>
				</g>
				<g>
					<path class="st5" d="M330.8,454.9c0-0.1,0-0.1,0.1-0.2c0.1-0.1,0.2-0.3,0.4-0.5l3.5-5.5c0.1-0.2,0.2-0.4,0.3-0.5
						c0.2-0.3,0.4-0.3,0.7-0.2l0.1,0c0.3,0.1,0.5,0.2,0.5,0.5c0,0.1,0,0.4,0.1,0.6l0.9,6.5c0,0.2,0.1,0.5,0.1,0.6c0,0.1,0,0.1,0,0.2
						c-0.1,0.2-0.3,0.4-0.5,0.3c-0.2,0-0.3-0.2-0.4-0.4c0-0.1,0-0.4,0-0.6l-0.2-1.2l-3.7-0.8l-0.6,1.1c-0.1,0.2-0.2,0.4-0.3,0.6
						c-0.1,0.2-0.3,0.3-0.5,0.2C330.9,455.4,330.7,455.1,330.8,454.9z M332.9,452.9l3.2,0.7l-0.5-4.2c0-0.2-0.1-0.5-0.1-0.7
						c-0.1,0.2-0.2,0.4-0.3,0.6L332.9,452.9z"/>
					<path class="st5" d="M338.8,454.1c0.3-1.6,1.5-2.6,3-2.3c0.6,0.1,1,0.4,1.2,0.8l0.5-2.2c0-0.2,0-0.4,0.1-0.6
						c0.1-0.2,0.3-0.4,0.5-0.3c0.2,0.1,0.4,0.3,0.3,0.5c0,0.2-0.1,0.4-0.2,0.6l-1.3,6.1c0,0.2,0,0.5,0,0.6c-0.1,0.3-0.3,0.4-0.6,0.4
						c-0.2,0-0.4-0.3-0.3-0.5c-0.4,0.3-0.9,0.4-1.4,0.3C339.1,457.2,338.4,455.7,338.8,454.1z M342.2,456.5l0.7-3.1
						c-0.2-0.5-0.6-0.8-1.2-0.9c-1.1-0.2-1.8,0.6-2.1,1.7c-0.2,1.2,0.1,2.3,1.2,2.6C341.3,456.9,341.7,456.9,342.2,456.5z"/>
					<path class="st5" d="M345.1,455.4c0.3-1.6,1.5-2.6,3-2.3c0.6,0.1,1,0.4,1.2,0.8l0.5-2.2c0-0.2,0-0.4,0.1-0.6
						c0.1-0.2,0.3-0.4,0.5-0.3c0.2,0.1,0.4,0.3,0.3,0.5c0,0.2-0.1,0.4-0.2,0.6l-1.3,6.1c0,0.2,0,0.5,0,0.6c-0.1,0.3-0.3,0.4-0.6,0.4
						c-0.2,0-0.4-0.3-0.3-0.5c-0.4,0.3-0.9,0.4-1.4,0.3C345.4,458.5,344.7,457,345.1,455.4z M348.4,457.8l0.7-3.1
						c-0.2-0.5-0.6-0.8-1.2-0.9c-1.1-0.2-1.8,0.6-2.1,1.7c-0.2,1.2,0.1,2.3,1.2,2.6C347.5,458.3,348,458.2,348.4,457.8z"/>
					<path class="st5" d="M351.2,459.2c0-0.2,0.1-0.4,0.2-0.6l0.7-3.3c0-0.2,0-0.5,0-0.6c0.1-0.3,0.3-0.4,0.5-0.4
						c0.2,0.1,0.4,0.3,0.3,0.5l0,0.2c0.5-0.4,1.1-0.6,1.5-0.5c0.3,0.1,0.5,0.3,0.4,0.6c-0.1,0.2-0.3,0.4-0.6,0.3
						c-0.2,0-0.3-0.2-0.4-0.2c-0.3-0.1-0.7,0.1-1.1,0.5l-0.6,3c0,0.2,0,0.4-0.1,0.6c-0.1,0.2-0.3,0.4-0.5,0.3
						C351.3,459.7,351.1,459.4,351.2,459.2z"/>
					<path class="st5" d="M360.1,458.3c-0.1,0.4-0.3,0.6-0.7,0.5l-3.4-0.7c-0.2,1.2,0.4,2.1,1.3,2.3c0.6,0.1,1.2,0,1.5-0.5
						c0.1-0.2,0.3-0.2,0.5-0.2c0.3,0.1,0.4,0.3,0.3,0.5c0,0.2-0.1,0.2-0.2,0.4c-0.5,0.5-1.3,0.7-2.2,0.5c-1.5-0.3-2.3-1.7-1.9-3.4
						c0.3-1.6,1.7-2.6,3.1-2.3C359.7,455.7,360.4,457,360.1,458.3z M356.1,457.4l3.3,0.7c0.2-0.8-0.1-1.8-1.2-2.1
						C357.2,455.8,356.4,456.4,356.1,457.4z"/>
					<path class="st5" d="M364,460.8c0.1-0.5-0.2-0.8-1.1-1.2l-0.2-0.1c-1-0.6-1.2-1.3-1.1-1.9c0.2-0.7,1-1.3,2-1.1
						c0.8,0.2,1.3,0.6,1.5,1c0.1,0.1,0.1,0.3,0.1,0.5c0,0.2-0.3,0.4-0.5,0.3c-0.1,0-0.3-0.1-0.3-0.4c-0.1-0.4-0.4-0.7-0.9-0.8
						c-0.6-0.1-1,0.1-1.1,0.5c-0.1,0.4,0,0.7,0.8,1.2l0.1,0.1c1.1,0.6,1.6,1.2,1.4,2.1c-0.2,0.8-1,1.4-2.3,1.1
						c-0.8-0.2-1.4-0.7-1.6-1.4c0-0.1-0.1-0.3,0-0.5c0-0.2,0.2-0.4,0.5-0.3c0.2,0.1,0.4,0.3,0.3,0.5c-0.1,0.5,0.4,0.9,1,1.1
						C363.3,461.6,363.9,461.4,364,460.8z"/>
					<path class="st5" d="M368.8,461.9c0.1-0.5-0.2-0.8-1.1-1.2l-0.2-0.1c-1-0.6-1.2-1.3-1.1-1.9c0.2-0.7,1-1.3,2-1.1
						c0.8,0.2,1.3,0.6,1.5,1c0.1,0.1,0.1,0.3,0.1,0.5c0,0.2-0.3,0.4-0.5,0.3c-0.1,0-0.3-0.1-0.3-0.4c-0.1-0.4-0.4-0.7-0.9-0.8
						c-0.6-0.1-1,0.1-1.1,0.5c-0.1,0.4,0,0.7,0.8,1.2l0.1,0.1c1.1,0.6,1.6,1.2,1.4,2.1c-0.2,0.8-1,1.4-2.3,1.1
						c-0.8-0.2-1.4-0.7-1.6-1.4c0-0.1-0.1-0.3,0-0.5c0-0.2,0.2-0.4,0.5-0.3c0.2,0.1,0.4,0.3,0.3,0.5c-0.1,0.5,0.4,0.9,1,1.1
						C368.1,462.6,368.7,462.4,368.8,461.9z"/>
				</g>
				<g>
					<path class="st5" d="M468.5,462.5l-53.3-11.3c-0.3-0.1-0.4-0.3-0.4-0.6c0.1-0.3,0.3-0.4,0.6-0.4l53.3,11.3
						c0.3,0.1,0.4,0.3,0.4,0.6C469,462.4,468.8,462.6,468.5,462.5z"/>
				</g>
				<g>
					<path class="st5" d="M464,484l-82.9-17.6c-0.3-0.1-0.4-0.3-0.4-0.6c0.1-0.3,0.3-0.4,0.6-0.4l82.9,17.6c0.3,0.1,0.4,0.3,0.4,0.6
						C464.5,483.9,464.2,484.1,464,484z"/>
				</g>
			</g>
			<g>
				<path class="st5" d="M404,766.5l-147.6-31.3c-0.3-0.1-0.4-0.3-0.4-0.6c0.1-0.3,0.3-0.4,0.6-0.4l147.6,31.3
					c0.3,0.1,0.4,0.3,0.4,0.6C404.5,766.4,404.2,766.6,404,766.5z"/>
			</g>
		</g>
	</g>
	<g>
		<g>
			<path class="st6" d="M970.7,642.7l-280.6,56.4c-14,2.8-27.6-6.3-30.5-20.3l2.6,13c2.8,14,16.4,23.1,30.5,20.3l280.6-56.4
				c14-2.8,23.1-16.5,20.3-30.5l-2.6-13C993.8,626.3,984.7,639.9,970.7,642.7z"/>
			<path class="st7" d="M990.9,612.3c2.8,14-6.3,27.6-20.3,30.5l-280.6,56.4c-14,2.8-27.6-6.3-30.5-20.3l-79.2-394.4
				c-2.8-14,6.3-27.6,20.3-30.5l280.6-56.4c14-2.8,27.6,6.3,30.5,20.3L990.9,612.3z"/>
			<path class="st6" d="M740.2,484.2c0.3,1.6-0.7,3.1-2.2,3.4l0,0c-1.6,0.3-3.1-0.7-3.4-2.2L698,303c-0.3-1.6,0.7-3.1,2.2-3.4l0,0
				c1.6-0.3,3.1,0.7,3.4,2.2L740.2,484.2z"/>
			<path class="st6" d="M811.4,445.7c0.3,1.6-0.7,3.1-2.2,3.4l0,0c-1.6,0.3-3.1-0.7-3.4-2.2l-21.1-105.2c-0.3-1.6,0.7-3.1,2.2-3.4
				l0,0c1.6-0.3,3.1,0.7,3.4,2.2L811.4,445.7z"/>
			<path class="st6" d="M872.7,415.8c0.3,1.6-0.7,3.1-2.2,3.4l0,0c-1.6,0.3-3.1-0.7-3.4-2.2l-36.6-182.3c-0.3-1.6,0.7-3.1,2.2-3.4
				l0,0c1.6-0.3,3.1,0.7,3.4,2.2L872.7,415.8z"/>
			<g>
				<path class="st8" d="M881.3,197.6l-280.6,56.4c-14,2.8-23.1,16.4-20.3,30.5l2.6,13c-2.8-14,6.3-27.6,20.3-30.5l280.6-56.4
					c14-2.8,27.6,6.3,30.5,20.3l-2.6-13C908.9,203.8,895.3,194.8,881.3,197.6z"/>
			</g>
			<g>
				<circle class="st1" cx="732.6" cy="184.4" r="14.1"/>
				<path class="st9" d="M881.3,197.6l-280.6,56.4c-9.3,1.9-16.5,8.5-19.4,16.9l368.8,138l-38.4-191
					C908.9,203.8,895.3,194.8,881.3,197.6z"/>
				<path class="st5" d="M859.3,233l-8.8-43.8c-1.6-7.8-9.1-12.8-16.9-11.2l-69.9,14c-0.1-1-0.2-2-0.4-3
					c-3.2-15.8-18.5-26-34.3-22.8c-15.8,3.2-26,18.5-22.8,34.3c0.2,1,0.5,2,0.8,3l-69.9,14c-7.8,1.6-12.8,9.1-11.2,16.9l8.8,43.8
					L859.3,233z M731.9,180.9c7.6-1.5,15.1,3.4,16.6,11.1c0.2,1,0.3,2.1,0.3,3.1c0,1.1-0.2,2.3-0.5,3.3c0,0.1,0,0.2-0.1,0.2
					c-0.1,0.3-0.2,0.6-0.3,0.8c0,0.1-0.1,0.2-0.1,0.4c-0.1,0.3-0.2,0.5-0.3,0.8c-0.1,0.1-0.1,0.3-0.2,0.4c-0.1,0.2-0.2,0.5-0.4,0.7
					c-0.1,0.1-0.2,0.3-0.2,0.4c-0.1,0.2-0.3,0.4-0.4,0.6c-0.1,0.1-0.2,0.3-0.3,0.4c-0.1,0.2-0.3,0.4-0.4,0.6
					c-0.2,0.2-0.4,0.5-0.6,0.7c-0.2,0.2-0.4,0.4-0.6,0.6c-0.2,0.2-0.4,0.3-0.5,0.5c-0.1,0.1-0.3,0.2-0.4,0.4
					c-0.2,0.1-0.4,0.3-0.6,0.4c-0.2,0.1-0.3,0.2-0.5,0.3c-0.2,0.1-0.4,0.3-0.6,0.4c-0.2,0.1-0.3,0.2-0.5,0.3
					c-0.2,0.1-0.5,0.2-0.7,0.3c-0.2,0.1-0.3,0.1-0.5,0.2c-0.3,0.1-0.6,0.2-0.8,0.3c-0.1,0-0.3,0.1-0.4,0.1c-0.4,0.1-0.9,0.2-1.3,0.3
					c-0.4,0.1-0.9,0.2-1.3,0.2c-0.2,0-0.3,0-0.4,0c-0.3,0-0.6,0-0.9,0c-0.2,0-0.3,0-0.5,0c-0.3,0-0.5,0-0.8,0c-0.2,0-0.4,0-0.5-0.1
					c-0.3,0-0.5-0.1-0.7-0.1c-0.2,0-0.4-0.1-0.5-0.1c-0.2-0.1-0.5-0.1-0.7-0.2c-0.2,0-0.4-0.1-0.5-0.2c-0.2-0.1-0.5-0.2-0.7-0.3
					c-0.2-0.1-0.5-0.2-0.7-0.3c-0.3-0.1-0.6-0.3-0.9-0.4c-0.2-0.1-0.4-0.2-0.6-0.4c-0.1-0.1-0.3-0.2-0.4-0.3
					c-0.2-0.1-0.4-0.3-0.6-0.4c-0.1-0.1-0.3-0.2-0.4-0.3c-0.2-0.2-0.4-0.3-0.6-0.5c-0.1-0.1-0.2-0.2-0.3-0.3
					c-0.2-0.2-0.4-0.4-0.6-0.6c-0.1-0.1-0.2-0.2-0.3-0.3c-0.2-0.2-0.4-0.4-0.6-0.7c0-0.1-0.1-0.1-0.1-0.2c-0.7-0.9-1.3-1.8-1.7-2.9
					c-0.4-0.9-0.8-1.9-1-3C719.3,189.8,724.3,182.4,731.9,180.9z"/>
				<g>
					<path class="st10" d="M833.6,178l-69.9,14c-0.1-1-0.2-2-0.4-3c-3.2-15.8-18.5-26-34.3-22.8c-15.8,3.2-26,18.5-22.8,34.3
						c0.2,1,0.5,2,0.8,3l-69.9,14c-7.8,1.6-12.8,9.1-11.2,16.9l1.2,6.1c-1.6-7.8,3.5-15.3,11.2-16.9l69.9-14c-0.3-1-0.6-2-0.8-3
						c-3.2-15.8,7-31.1,22.8-34.3c15.8-3.2,31.1,7.1,34.3,22.8c0.2,1,0.3,2,0.4,3l69.9-14c7.8-1.6,15.3,3.5,16.9,11.2l-1.2-6.1
						C849,181.4,841.4,176.4,833.6,178z"/>
					<path class="st11" d="M733.1,186.9c6.6-1.3,13,2.2,15.7,8.1c0-1-0.1-2.1-0.3-3.1c-1.5-7.6-9-12.6-16.6-11.1
						c-7.6,1.5-12.6,9-11.1,16.6c0.2,1,0.5,2,1,3C722,194,726.5,188.3,733.1,186.9z"/>
					
						<rect x="632.2" y="248.6" transform="matrix(-0.9804 0.197 -0.197 -0.9804 1529.3622 358.3165)" class="st11" width="229.3" height="13.1"/>
				</g>
			</g>
		</g>
		<path class="st6" d="M696.2,701.2c0.3,1.6-0.7,3.1-2.2,3.4l0,0c-1.6,0.3-3.1-0.7-3.4-2.2L653.9,520c-0.3-1.6,0.7-3.1,2.2-3.4l0,0
			c1.6-0.3,3.1,0.7,3.4,2.2L696.2,701.2z"/>
		<path class="st6" d="M707.6,612.5c0.3,1.6-0.7,3.1-2.2,3.4l0,0c-1.6,0.3-3.1-0.7-3.4-2.2l-36.6-182.3c-0.3-1.6,0.7-3.1,2.2-3.4
			l0,0c1.6-0.3,3.1,0.7,3.4,2.2L707.6,612.5z"/>
		<path class="st6" d="M944.2,587.4c0.3,1.5-0.7,3.1-2.2,3.4l0,0c-1.6,0.3-3.1-0.7-3.4-2.2l-36.6-182.3c-0.3-1.6,0.7-3.1,2.2-3.4
			l0,0c1.6-0.3,3.1,0.7,3.4,2.2L944.2,587.4z"/>
		<path class="st6" d="M814.4,648.7c0.3,1.6-0.7,3.1-2.2,3.4l0,0c-1.6,0.3-3.1-0.7-3.4-2.2l-36.6-182.3c-0.3-1.6,0.7-3.1,2.2-3.4
			l0,0c1.6-0.3,3.1,0.7,3.4,2.2L814.4,648.7z"/>
		<path class="st6" d="M828.8,532c0.3,1.6-0.7,3.1-2.2,3.4l0,0c-1.6,0.3-3.1-0.7-3.4-2.2l-10.3-51.2c-0.3-1.6,0.7-3.1,2.2-3.4l0,0
			c1.6-0.3,3.1,0.7,3.4,2.2L828.8,532z"/>
		<path class="st6" d="M664.2,396.5c0.3,1.6-0.7,3.1-2.2,3.4l0,0c-1.6,0.3-3.1-0.7-3.4-2.2l-10.3-51.2c-0.3-1.6,0.7-3.1,2.2-3.4l0,0
			c1.6-0.3,3.1,0.7,3.4,2.2L664.2,396.5z"/>
		<path class="st6" d="M912.4,613.6c0.3,1.5-0.7,3.1-2.2,3.4l0,0c-1.6,0.3-3.1-0.7-3.4-2.2l-10.3-51.2c-0.3-1.5,0.7-3.1,2.2-3.4l0,0
			c1.6-0.3,3.1,0.7,3.4,2.2L912.4,613.6z"/>
	</g>
	<path class="st2" d="M1318.8,149.2c0.2-0.4,0.4-0.8,0.6-1.2c0,0,0,0,0,0c0.2-0.3,0.3-0.7,0.5-1.1c0-0.1,0-0.1,0.1-0.2c0,0,0,0,0,0
		c2-5.2,0.7-11.3-3.6-15.3l-19.1-17.8c-3.1-2.9-7.2-4.1-11.1-3.7c-1.8-1.4-3.7-2.7-5.7-3.9c-8.5-8.1-17.5-12.7-27-13.8
		c-1.2-0.8-2.6-1.4-4.1-1.7l-25.4-6c-6.7-1.6-13.3,1.9-16,7.9c0,0.1-0.1,0.2-0.1,0.3c-0.1,0.3-0.3,0.6-0.4,0.9
		c-0.2,0.4-0.3,0.9-0.4,1.4c-1.4,6,1.3,12.1,6.3,15.2c-5.1,5.5-8.9,11.3-11.3,15.9c-24.8,48.1-64.3,113.8-87,151
		c-2.9,0.5-5.5,2.2-7.1,4.9c-0.5,0.8-11.8,19.9-21.4,44.3c-13.5,34.1-17,61.1-10.3,80.1c3.3,9.5,9.2,17,17.3,22.3
		c-9.3,24.7-38.3,99-77.6,175.8c-62.5,122.1-122.3,194.6-172.8,209.8c-21,6.3-40.1,2.7-58.5-11c-55.4-41.4-69.8-105.2-42.7-189.8
		c8.4-26.4,19.8-50.8,30.4-70.6c19.8,7.2,42.9,2.8,58.8-13.1c21.7-21.9,21.6-57.3-0.3-79c-21.9-21.7-57.3-21.6-79,0.3
		c-21.7,21.9-21.6,57.3,0.3,79c0.7,0.7,1.5,1.4,2.2,2.1C743,553.1,731,578.8,722,606.9c-29.8,92.9-12.6,166.6,50,213.3
		c16.2,12.1,33.5,18.2,51.5,18.2c8.3,0,16.8-1.3,25.5-3.9c56.9-17.1,119.3-91.2,185.4-220.3c39.8-77.8,69.2-153.1,78.6-178.1
		c1.7,0.2,3.4,0.3,5.3,0.3c16.3,0,37.9-8.9,63.3-40c19-23.3,31.8-48.5,32.3-49.5c1.6-3.3,1.4-7-0.3-10
		c17.8-38.9,51.6-111.2,78.5-160.1c3-5.4,6.3-13.6,7.9-22.7c5.5,3.1,12.7,2.2,17.2-2.7c0.3-0.3,0.6-0.7,0.9-1.1
		c0.2-0.3,0.4-0.6,0.6-0.9C1318.7,149.4,1318.8,149.3,1318.8,149.2z M1279.2,169.8c-27.7,50.3-62.6,125.1-80.1,163.5
		c-1.6,1-3,2.4-3.9,4.2c-11.9,23.7-53.2,88.6-85.2,76.6c-7.3-2.7-11.8-7.3-14.3-14.3c-10.2-29,18.2-87,30-106.9
		c1.4-2.3,1.7-4.9,1.3-7.3c22.8-37.3,62.8-103.8,87.9-152.5c2.8-5.5,8.1-12.6,14.6-18l13.3,3.1c5.2,1.2,10.4-0.6,13.7-4.3
		c5.9,0.8,11,2.2,15.1,4.3c0.8,0.8,1.6,1.6,2.3,2.5c-1.2,4.8,0.2,10.2,4.1,13.8l8.1,7.5C1286.5,152.2,1282.9,163.2,1279.2,169.8z"/>
	<g>
		<path class="st5" d="M739.5,434.2c-21.7,21.9-21.6,57.3,0.3,79c21.9,21.7,57.3,21.6,79-0.3c21.7-21.9,21.6-57.3-0.3-79
			C796.6,412.2,761.2,412.3,739.5,434.2z"/>
		<path class="st10" d="M751.7,446.3c-15,15.2-14.9,39.6,0.2,54.7c15.2,15,39.6,14.9,54.7-0.2c15-15.2,14.9-39.6-0.2-54.7
			C791.2,431.1,766.7,431.2,751.7,446.3z"/>
		<circle class="st12" cx="783.2" cy="469.4" r="25.5"/>
		<path class="st13" d="M781.1,471.6c0,0-158.4,216.2-15,323.2c148.6,110.9,328.2-388,328.2-388"/>
		<g>
			<path class="st14" d="M1274.4,107.6c-33.8-49.1-67.9-14.6-78,5c-36.8,71.5-105.1,180.2-105.1,180.2"/>
			<path class="st5" d="M1265.3,97.4c5.3-5.7,14.2-6,19.9-0.7l19.1,17.8c5.7,5.3,6,14.2,0.7,19.9l0,0c-5.3,5.7-14.2,6-19.9,0.7
				l-19.1-17.8C1260.3,112,1260,103.1,1265.3,97.4L1265.3,97.4z"/>
			<g>
				<path class="st10" d="M1290.2,128.6l-19.1-17.8c-4.3-4-5.5-10.1-3.6-15.3c-0.8,0.6-1.5,1.2-2.2,1.9c-5.3,5.7-5,14.6,0.7,19.9
					l19.1,17.8c5.7,5.3,14.6,5,19.9-0.7c1.3-1.4,2.2-2.9,2.8-4.6C1302.6,133.5,1295.2,133.2,1290.2,128.6z"/>
			</g>
		</g>
		<path class="st15" d="M1234.2,88.7c59.6,0.7,49.9,48.2,39.3,67.5c-38.8,70.4-91,187.7-91,187.7"/>
		<path class="st5" d="M1247.7,90.6c1.8-7.6-2.9-15.2-10.5-16.9l-25.4-6c-7.6-1.8-15.2,2.9-16.9,10.5l0,0
			c-1.8,7.6,2.9,15.2,10.5,16.9l25.4,6C1238.4,102.8,1246,98.1,1247.7,90.6L1247.7,90.6z"/>
		<g>
			<path class="st10" d="M1208,87.3l25.4,6c5.7,1.3,11.5-1,14.7-5.6c0,1-0.1,1.9-0.4,2.9c-1.8,7.6-9.4,12.3-16.9,10.5l-25.4-6
				c-7.6-1.8-12.3-9.4-10.5-16.9c0.4-1.8,1.2-3.5,2.2-4.9C1197,79.8,1201.4,85.7,1208,87.3z"/>
		</g>
		<path class="st16" d="M1104.7,270.5c0,0-68.1,114.6-10.4,136.3c48.1,18.1,98.1-81.7,98.1-81.7"/>
	</g>
	<g>
		<path class="st17" d="M223.5,170.6l16.9-15.1l-53.1-59.4l-16.9,15.1c-8.8-4.2-19.6-3-27.4,3.9l-92.1,82.4
			c-10.2,9.2-11.1,24.9-2,35.1l40.4,45.1c9.2,10.2,24.9,11.1,35.1,2l92.1-82.4C224.3,190.5,226.7,179.8,223.5,170.6z"/>
		<path class="st18" d="M223.5,170.6l16.1-14.4l-10.3-11.5L85.4,273.5l3.9,4.4c9.2,10.2,24.9,11.1,35.1,2l92.1-82.4
			C224.3,190.5,226.7,179.8,223.5,170.6z"/>
		
			<rect x="168.5" y="123.4" transform="matrix(0.6668 0.7453 -0.7453 0.6668 166.9042 -111.6223)" class="st18" width="79.6" height="14.9"/>
		<path class="st19" d="M246.4,160.4c-3.4,3.1-8.7,2.8-11.7-0.7l-52.3-58.4c-3.1-3.4-2.8-8.7,0.7-11.7l15.5-13.8
			c3.4-3.1,8.7-2.8,11.7,0.7l52.3,58.4c3.1,3.4,2.8,8.7-0.7,11.7L246.4,160.4z"/>
		<path class="st20" d="M262.5,134.9l-52.3-58.4c-3.1-3.4-8.3-3.7-11.7-0.7l63.3,70.8C265.3,143.5,265.6,138.3,262.5,134.9z"/>
		<g>
			<path class="st21" d="M187.5,97.9c-0.6,0.5-1.5,0.5-2.1-0.1l0,0c-0.5-0.6-0.5-1.5,0.1-2.1l19.2-17.1c0.6-0.5,1.5-0.5,2.1,0.1l0,0
				c0.5,0.6,0.5,1.5-0.1,2.1L187.5,97.9z"/>
			<path class="st21" d="M196.3,107.8c-0.6,0.5-1.5,0.5-2-0.1l0,0c-0.5-0.6-0.5-1.5,0.1-2.1l19.2-17.1c0.6-0.5,1.5-0.5,2,0.1l0,0
				c0.5,0.6,0.5,1.5-0.1,2.1L196.3,107.8z"/>
			<path class="st21" d="M205.2,117.7c-0.6,0.5-1.5,0.5-2.1-0.1l0,0c-0.5-0.6-0.5-1.5,0.1-2.1l19.2-17.1c0.6-0.5,1.5-0.5,2.1,0.1
				l0,0c0.5,0.6,0.5,1.5-0.1,2.1L205.2,117.7z"/>
			<path class="st21" d="M214,127.6c-0.6,0.5-1.5,0.5-2.1-0.1l0,0c-0.5-0.6-0.5-1.5,0.1-2l19.2-17.1c0.6-0.5,1.5-0.5,2,0.1l0,0
				c0.5,0.6,0.5,1.5-0.1,2L214,127.6z"/>
			<path class="st21" d="M222.9,137.5c-0.6,0.5-1.5,0.5-2-0.1l0,0c-0.5-0.6-0.5-1.5,0.1-2l19.2-17.1c0.6-0.5,1.5-0.5,2,0.1l0,0
				c0.5,0.6,0.5,1.5-0.1,2L222.9,137.5z"/>
			<path class="st21" d="M231.7,147.4c-0.6,0.5-1.5,0.5-2.1-0.1l0,0c-0.5-0.6-0.5-1.5,0.1-2.1l19.2-17.1c0.6-0.5,1.5-0.5,2,0.1l0,0
				c0.5,0.6,0.5,1.5-0.1,2L231.7,147.4z"/>
			<path class="st21" d="M240.6,157.3c-0.6,0.5-1.5,0.5-2.1-0.1l0,0c-0.5-0.6-0.5-1.5,0.1-2l19.2-17.1c0.6-0.5,1.5-0.5,2,0.1l0,0
				c0.5,0.6,0.5,1.5-0.1,2.1L240.6,157.3z"/>
		</g>
		
			<rect x="82.3" y="143.6" transform="matrix(-0.6668 -0.7453 0.7453 -0.6668 84.4514 426.0754)" class="st4" width="110.3" height="101.2"/>
		<circle class="st22" cx="140.3" cy="156" r="11.8"/>
		
			<ellipse transform="matrix(0.9851 0.1722 -0.1722 0.9851 23.3114 -25.9517)" class="st23" cx="161.3" cy="121.4" rx="11.1" ry="5.8"/>
	</g>
	<g>
		<path class="st24" d="M1230.4,720.3l-10.6-20.6l-132.4,68l10.6,20.6c-6.4,7.6-8.1,18.6-3.2,28.1l57.7,112.4
			c6.4,12.5,21.8,17.4,34.3,11l115.1-59.1c12.5-6.4,17.4-21.8,11-34.3l-57.7-112.4C1250.3,724.7,1240.4,719.5,1230.4,720.3z"/>
		<path class="st25" d="M1230.4,720.3l-10.1-19.6l-14,7.2l90.2,175.6l5.3-2.7c12.5-6.4,17.4-21.8,11-34.3l-57.7-112.4
			C1250.3,724.7,1240.4,719.5,1230.4,720.3z"/>
		
			<rect x="1082.7" y="732.9" transform="matrix(0.8895 -0.4569 0.4569 0.8895 -210.52 610.5059)" class="st25" width="148.9" height="15.3"/>
		<path class="st5" d="M1226.2,695c2.1,4.2,0.5,9.3-3.7,11.4l-131.3,67.4c-4.2,2.1-9.3,0.5-11.4-3.7l-9.7-18.9
			c-2.1-4.2-0.5-9.3,3.7-11.4l131.3-67.4c4.2-2.1,9.3-0.5,11.4,3.7L1226.2,695z"/>
		<path class="st10" d="M1205.1,672.5L1073.8,740c-4.2,2.1-5.8,7.3-3.7,11.4l146.4-75.2C1214.4,672,1209.3,670.4,1205.1,672.5z"/>
		
			<rect x="1111.4" y="775.2" transform="matrix(-0.8895 0.4569 -0.4569 -0.8895 2648.0432 1013.5551)" class="st4" width="180.2" height="103.5"/>
		<circle class="st17" cx="1134.5" cy="829.7" r="12.1"/>
		<path class="st26" d="M1110.4,789.8c3,1.4,3.3,7.1,0.7,12.8c-2.6,5.7-7.1,9.2-10.1,7.8c-3-1.4-3.3-7.1-0.7-12.8
			C1102.9,791.9,1107.4,788.4,1110.4,789.8z"/>
	</g>
	<g>
		<g>
			<path class="st27" d="M414.1,180.1h-11.6c-4.4,0-7.9,3.5-7.9,7.9v0.2c0,4.4,3.5,7.9,7.9,7.9h11.6V180.1z"/>
			<path class="st4" d="M426.2,180.1h-12.1v16h12.1c4.4,0,7.9-3.5,7.9-7.9V188C434.1,183.7,430.6,180.1,426.2,180.1z"/>
		</g>
		<path class="st28" d="M395.3,191.6c1.3,2.7,4,4.5,7.2,4.5h23.8c3.2,0,5.9-1.9,7.2-4.5H395.3z"/>
	</g>
	<g>
		<g>
			<path class="st17" d="M424.8,114.8l-10.5,5.1c-3.9,1.9-5.6,6.6-3.7,10.6l0.1,0.2c1.9,3.9,6.6,5.6,10.6,3.7l10.5-5.1L424.8,114.8z
				"/>
			<path class="st4" d="M435.7,109.5l-10.9,5.3l7,14.4l10.9-5.3c3.9-1.9,5.6-6.6,3.7-10.6l-0.1-0.2
				C444.4,109.3,439.7,107.6,435.7,109.5z"/>
		</g>
		<path class="st28" d="M412.9,133.3c2.3,1.9,5.6,2.4,8.4,1l21.4-10.3c2.8-1.4,4.5-4.2,4.5-7.2L412.9,133.3z"/>
	</g>
	<g>
		<g>
			<path class="st17" d="M540,241.7l-10.5,5.1c-3.9,1.9-5.6,6.6-3.7,10.6l0.1,0.2c1.9,3.9,6.6,5.6,10.6,3.7l10.5-5.1L540,241.7z"/>
			<path class="st4" d="M550.9,236.4l-10.9,5.3l7,14.4l10.9-5.3c3.9-1.9,5.6-6.6,3.7-10.6l-0.1-0.2
				C559.6,236.2,554.9,234.5,550.9,236.4z"/>
		</g>
		<path class="st28" d="M528.1,260.2c2.3,1.9,5.6,2.4,8.4,1l21.4-10.3c2.8-1.4,4.5-4.2,4.5-7.2L528.1,260.2z"/>
	</g>
	<g>
		<g>
			<path class="st22" d="M520.5,130.7l-10.6-4.8c-4-1.8-8.7,0-10.5,4l-0.1,0.2c-1.8,4,0,8.7,4,10.5l10.6,4.8L520.5,130.7z"/>
			<path class="st4" d="M531.5,135.6l-11.1-5l-6.6,14.6l11.1,5c4,1.8,8.7,0,10.5-4l0.1-0.2C537.3,142.1,535.5,137.4,531.5,135.6z"/>
		</g>
		<path class="st28" d="M498.6,133.5c0.1,3,1.8,5.8,4.7,7.1l21.7,9.7c2.9,1.3,6.1,0.7,8.4-1.2L498.6,133.5z"/>
	</g>
	<g>
		<g>
			<path class="st22" d="M329.6,244.8l-11.6-1.2c-4.4-0.4-8.2,2.7-8.7,7.1l0,0.2c-0.4,4.4,2.7,8.2,7.1,8.7l11.6,1.2L329.6,244.8z"/>
			<path class="st4" d="M341.6,246.1l-12.1-1.2l-1.6,16L340,262c4.4,0.4,8.2-2.7,8.7-7.1l0-0.2C349.1,250.4,346,246.5,341.6,246.1z"
				/>
		</g>
		<path class="st28" d="M309.7,254.3c1,2.8,3.5,4.9,6.7,5.2L340,262c3.1,0.3,6-1.2,7.6-3.8L309.7,254.3z"/>
	</g>
	<path class="st2" d="M435.4,814l-1.9-4.2c-0.4-0.9-1-1.8-1.6-2.5c0,0,0,0,0,0c-0.2-0.3-0.4-0.5-0.7-0.7c0,0,0,0,0,0
		c-0.2-0.2-0.5-0.5-0.7-0.7c0,0,0,0,0,0c-0.3-0.3-0.6-0.5-1-0.7c0,0,0,0,0,0c-0.3-0.2-0.7-0.4-1-0.6c0,0,0,0,0,0
		c-0.4-0.2-0.7-0.4-1.1-0.5c0,0,0,0,0,0c-0.4-0.2-0.7-0.3-1.1-0.4c0,0,0,0,0,0c0,0,0,0,0,0c0,0-0.1,0-0.1,0
		c-0.2-0.1-0.5-0.1-0.7-0.2c-0.1,0-0.2-0.1-0.4-0.1c-0.2,0-0.4-0.1-0.6-0.1c-0.2,0-0.3,0-0.5-0.1c0,0,0,0,0,0c0,0,0,0,0,0
		c-0.2,0-0.4,0-0.5,0c0,0,0,0,0,0c0,0,0,0,0,0c-0.2,0-0.3,0-0.5,0c0,0,0,0,0,0s0,0,0,0c-0.2,0-0.3,0-0.5,0c0,0,0,0,0,0c0,0,0,0,0,0
		c-0.2,0-0.4,0-0.6,0c-0.2,0-0.3,0-0.5,0.1c-0.2,0-0.4,0.1-0.6,0.1c-0.1,0-0.3,0.1-0.4,0.1c-0.2,0.1-0.5,0.1-0.7,0.2
		c-0.1,0-0.2,0.1-0.4,0.1c-0.4,0.1-0.7,0.3-1,0.4L189,909.6c-0.3,0.2-0.7,0.3-1,0.5c-0.1,0-0.1,0-0.2,0.1l-0.5,0.4
		c-0.3,0.2-0.7,0.5-1,0.7l-25.3,19c-2.3,1.1-3.7,3.3-3.8,5.7l-4.5,2.1c-1.6,0.7-2.3,2.6-1.6,4.2c0.7,1.6,2.6,2.3,4.2,1.6l4.7-2.2
		c0,0,0,0,0,0c0.1,0.1,0.3,0.2,0.4,0.3c0,0,0.1,0.1,0.1,0.1c0.2,0.1,0.3,0.2,0.5,0.2c0,0,0.1,0,0.1,0c1.6,0.6,3.4,0.6,5.1-0.2
		l30.6-6.3c0.6-0.1,1.2-0.2,1.9-0.4l0.5-0.1c0.1,0,0.1-0.1,0.2-0.1c0.4-0.1,0.7-0.3,1-0.4L343,869.3c0,0,0,0,0,0.1
		c0.1,0.1,0.1,0.2,0.2,0.3c0.3,0.4,0.6,0.8,0.9,1.2c0,0,0,0,0,0l0,0c3.3,3.7,8.8,5,13.5,2.8l56.4-26c4.8-2.2,7.3-7.2,6.6-12.2
		c0-0.3-0.1-0.6-0.2-0.9c0-0.1-0.1-0.3-0.1-0.4c0-0.2-0.1-0.4-0.2-0.6l9.4-4.3C435.5,826.7,438,819.8,435.4,814z"/>
	<g>
		<path class="st5" d="M154.7,930.3c0.8,1.5,0.3,3.5-1.3,4.3l-8.5,4.6c-1.5,0.8-3.5,0.3-4.3-1.3l0,0c-0.8-1.5-0.3-3.5,1.3-4.3
			l8.5-4.6C152,928.2,153.9,928.8,154.7,930.3L154.7,930.3z"/>
		<path class="st27" d="M397.2,781.8L176,902.8c-0.3,0.2-0.6,0.4-1,0.6c-0.1,0-0.1,0-0.2,0.1l-0.4,0.4c-0.3,0.3-0.6,0.5-0.9,0.8
			l-23.9,20.7c-3.2,1.7-4.3,5.7-2.6,8.9c1.7,3.2,5.7,4.3,8.9,2.6l30.1-8.4c0.6-0.1,1.2-0.3,1.8-0.5l0.5-0.1c0.1,0,0.1-0.1,0.1-0.1
			c0.3-0.1,0.7-0.3,1-0.5l221.2-121c5.6-3.1,7.7-10.1,4.6-15.8l-2.2-4.1C409.9,780.7,402.9,778.7,397.2,781.8z"/>
		<path class="st5" d="M397.2,781.8l-17.6,9.6c0.2,1.2,0.6,2.4,1.2,3.6l8.9,16.3c1,1.8,2.3,3.2,3.9,4.2l16.9-9.2
			c5.6-3.1,7.7-10.1,4.6-15.8l-2.2-4.1C409.9,780.7,402.9,778.7,397.2,781.8z"/>
		<g>
			<path class="st29" d="M154.2,928.8l23.9-20.7c0.3-0.3,0.6-0.5,0.9-0.8l0.4-0.4c0.1,0,0.1,0,0.2-0.1c0.3-0.2,0.6-0.4,1-0.6
				l221.2-121c3.2-1.8,7-1.8,10.1-0.5c-3.4-4.4-9.6-5.7-14.7-3L176,902.8c-0.3,0.2-0.6,0.4-1,0.6c-0.1,0-0.1,0-0.2,0.1l-0.4,0.4
				c-0.3,0.3-0.6,0.5-0.9,0.8l-23.9,20.7c-3.2,1.7-4.3,5.7-2.6,8.9c1,1.8,2.6,2.9,4.5,3.3C149.9,934.4,151.1,930.5,154.2,928.8z"/>
		</g>
		<path class="st10" d="M381.6,796.3l20.2-11c3.2-1.8,7-1.8,10.1-0.5c-0.2-0.3-0.4-0.5-0.7-0.8c0,0,0,0,0,0
			c-0.2-0.2-0.5-0.5-0.7-0.7c0,0,0,0,0,0c-0.2-0.2-0.5-0.4-0.8-0.6c0,0,0,0,0,0c-1.3-1-2.8-1.6-4.4-2c-0.1,0-0.1,0-0.1,0
			c-0.2,0-0.5-0.1-0.7-0.1c-0.1,0-0.2,0-0.4-0.1c-0.2,0-0.4,0-0.6,0c-0.2,0-0.3,0-0.5,0c-0.2,0-0.4,0-0.6,0c-0.2,0-0.4,0-0.5,0
			c-0.2,0-0.3,0-0.5,0.1c-0.2,0-0.4,0.1-0.6,0.1c-0.2,0-0.3,0.1-0.5,0.1c-0.2,0-0.4,0.1-0.6,0.2c-0.1,0-0.3,0.1-0.4,0.1
			c-0.2,0.1-0.5,0.2-0.7,0.2c-0.1,0-0.2,0.1-0.4,0.1c-0.3,0.1-0.7,0.3-1,0.5l-17.6,9.6c0.2,1.2,0.6,2.4,1.2,3.6L381.6,796.3z"/>
		<path class="st5" d="M400.9,809.8c3.1,5.6,1,12.7-4.6,15.8l-54.5,29.8c-5.6,3.1-12.7,1-15.8-4.6l-0.4-0.7
			c-3.1-5.6-1-12.7,4.6-15.8l54.5-29.8c5.6-3.1,12.7-1,15.8,4.6L400.9,809.8z"/>
		<g>
			<path class="st10" d="M400.5,809.1c-3.1-5.6-10.1-7.7-15.8-4.6l-54.5,29.8c-5.6,3.1-7.7,10.1-4.6,15.8l0.4,0.7
				c0.6,1,1.3,1.9,2,2.7c-1-4.9,1.2-10.1,5.8-12.6l54.5-29.8c4.6-2.5,10.2-1.6,13.7,1.9c-0.2-1.1-0.6-2.2-1.2-3.2L400.5,809.1z"/>
		</g>
	</g>
	<linearGradient id="SVGID_1_" gradientUnits="userSpaceOnUse" x1="0" y1="718.2617" x2="1399.376" y2="718.2617">
		<stop  offset="0" style="stop-color:#FFFFFF;stop-opacity:0"/>
		<stop  offset="1" style="stop-color:#727272"/>
	</linearGradient>
	<polygon class="st30" points="1399.4,456.5 0,725.1 0,980 1399.4,980 	"/>
</g>
</svg>
